<mxfile host="65bd71144e" modified="2020-10-29T13:05:02.727Z" agent="5.0 (Windows NT 10.0; Win64; x64) AppleWebKit/537.36 (KHTML, like Gecko) Code/1.50.1 Chrome/83.0.4103.122 Electron/9.2.1 Safari/537.36" etag="WA5Kf1EjNkPw5cmFjyiZ" version="13.6.5">
    <diagram id="X-h7fP35t88OqVQAyo-T" name="Page-1">
        <mxGraphModel dx="1629" dy="1190" grid="1" gridSize="10" guides="1" tooltips="1" connect="1" arrows="1" fold="1" page="1" pageScale="1" pageWidth="1600" pageHeight="900" math="0" shadow="0">
            <root>
                <mxCell id="0"/>
                <mxCell id="1" parent="0"/>
                <mxCell id="61" value="&lt;font style=&quot;font-size: 18px&quot;&gt;SERVEUR WEB LAMP&lt;br&gt;&lt;br&gt;LINUX&lt;br&gt;APACHE&lt;br&gt;PHP&lt;br&gt;MySQL / MariaDB&lt;br&gt;&lt;br&gt;&lt;br&gt;&lt;br&gt;&lt;br&gt;&lt;br&gt;&lt;br&gt;&lt;br&gt;&lt;br&gt;&lt;br&gt;&lt;br&gt;&lt;br&gt;&lt;br&gt;&lt;br&gt;&lt;br&gt;&lt;br&gt;&lt;br&gt;&lt;br&gt;&lt;br&gt;&lt;br&gt;&lt;br&gt;&lt;br&gt;&lt;br&gt;&lt;br&gt;&lt;br&gt;&lt;br&gt;&lt;br&gt;&lt;br&gt;&lt;br&gt;&lt;/font&gt;" style="whiteSpace=wrap;html=1;fillColor=#f8cecc;strokeColor=#b85450;gradientColor=#ea6b66;" parent="1" vertex="1">
                    <mxGeometry x="720" y="40" width="840" height="800" as="geometry"/>
                </mxCell>
                <mxCell id="116" value="&lt;font style=&quot;font-size: 18px&quot;&gt;FRONT&lt;br&gt;&lt;br&gt;&lt;br&gt;&lt;br&gt;&lt;br&gt;&lt;br&gt;&lt;br&gt;&lt;br&gt;&lt;br&gt;&lt;br&gt;&lt;br&gt;&lt;/font&gt;" style="whiteSpace=wrap;html=1;fillColor=#fff2cc;strokeColor=#d6b656;gradientColor=#ffd966;" vertex="1" parent="1">
                    <mxGeometry x="120" y="40" width="320" height="800" as="geometry"/>
                </mxCell>
                <mxCell id="146" value="" style="pointerEvents=1;shadow=0;dashed=0;html=1;strokeColor=none;labelPosition=center;verticalLabelPosition=bottom;verticalAlign=top;outlineConnect=0;align=center;shape=mxgraph.office.communications.dynamic_distribution_group;glass=0;fillColor=#99CCFF;" vertex="1" parent="1">
                    <mxGeometry x="40" y="240" width="80" height="80" as="geometry"/>
                </mxCell>
                <mxCell id="60" value="L1" parent="0"/>
                <mxCell id="98" value="" style="pointerEvents=1;shadow=0;dashed=0;html=1;strokeColor=none;labelPosition=center;verticalLabelPosition=bottom;verticalAlign=top;outlineConnect=0;align=center;shape=mxgraph.office.communications.dynamic_distribution_group;glass=0;fillColor=#CCFFCC;" parent="60" vertex="1">
                    <mxGeometry x="40" y="120" width="80" height="80" as="geometry"/>
                </mxCell>
                <mxCell id="100" value="&lt;font style=&quot;font-size: 18px&quot;&gt;NAVIGATEUR&lt;br&gt;&lt;br&gt;&lt;br&gt;&lt;br&gt;&lt;br&gt;&lt;br&gt;&lt;br&gt;&lt;br&gt;HTML&lt;br&gt;CSS&lt;br&gt;JS&lt;br&gt;&lt;br&gt;&lt;br&gt;&lt;br&gt;&lt;br&gt;&lt;br&gt;&lt;br&gt;VUE&lt;br&gt;&lt;br&gt;UIKIT&lt;br&gt;&lt;br&gt;&lt;br&gt;&lt;br&gt;&lt;br&gt;&lt;/font&gt;" style="whiteSpace=wrap;html=1;glass=0;shadow=0;rounded=1;" parent="60" vertex="1">
                    <mxGeometry x="160" y="110" width="240" height="570" as="geometry"/>
                </mxCell>
                <mxCell id="101" value="&lt;font style=&quot;font-size: 18px&quot;&gt;Linux&lt;br&gt;Android / iOS&lt;br&gt;Windows / MacOS&amp;nbsp;&lt;/font&gt;" style="shape=trapezoid;perimeter=trapezoidPerimeter;whiteSpace=wrap;html=1;fixedSize=1;shadow=0;glass=0;gradientColor=#b3b3b3;fillColor=#f5f5f5;strokeColor=#666666;rounded=1;" parent="60" vertex="1">
                    <mxGeometry x="160" y="720" width="240" height="81.96" as="geometry"/>
                </mxCell>
                <mxCell id="120" value="&lt;font style=&quot;font-size: 18px&quot;&gt;URL https://monsite.fr/&lt;/font&gt;" style="rounded=0;whiteSpace=wrap;html=1;" vertex="1" parent="60">
                    <mxGeometry x="190" y="210" width="180" height="60" as="geometry"/>
                </mxCell>
                <mxCell id="121" value="&lt;font style=&quot;font-size: 18px&quot;&gt;REQUETE&lt;br&gt;+&lt;br&gt;REPONSE&lt;/font&gt;" style="shape=callout;whiteSpace=wrap;html=1;perimeter=calloutPerimeter;gradientColor=#7ea6e0;fillColor=#dae8fc;strokeColor=#6c8ebf;" vertex="1" parent="60">
                    <mxGeometry x="480" y="200" width="190" height="160" as="geometry"/>
                </mxCell>
                <mxCell id="68" value="L2" parent="0"/>
                <mxCell id="152" value="&lt;font style=&quot;font-size: 14px&quot;&gt;HTML, CSS, JS&amp;nbsp; &amp;nbsp;&amp;nbsp;&lt;br&gt;SVG&amp;nbsp; &amp;nbsp;&amp;nbsp;&lt;br&gt;WEBP, PNG, JPG, GIF&amp;nbsp; &amp;nbsp;&amp;nbsp;&lt;br&gt;TTF&amp;nbsp; &amp;nbsp;&amp;nbsp;&lt;br&gt;MP3, MP4&amp;nbsp; &amp;nbsp;&amp;nbsp;&lt;br&gt;...&amp;nbsp; &amp;nbsp;&amp;nbsp;&lt;/font&gt;" style="whiteSpace=wrap;html=1;shadow=0;glass=0;align=right;gradientColor=#ffa500;fillColor=#ffcd28;strokeColor=#d79b00;" vertex="1" parent="68">
                    <mxGeometry x="840" y="240" width="440" height="200" as="geometry"/>
                </mxCell>
                <mxCell id="138" value="&lt;font style=&quot;font-size: 18px&quot;&gt;Apache&lt;/font&gt;" style="triangle;whiteSpace=wrap;html=1;gradientColor=#b3b3b3;fillColor=#f5f5f5;strokeColor=#666666;" vertex="1" parent="68">
                    <mxGeometry x="720" y="306.67" width="120" height="373.33" as="geometry"/>
                </mxCell>
                <mxCell id="135" value="&lt;font style=&quot;font-size: 18px&quot;&gt;&lt;br&gt;&lt;br&gt;&lt;br&gt;&lt;br&gt;&lt;br&gt;&lt;br&gt;&lt;br&gt;&lt;br&gt;MySQL&lt;br&gt;&lt;br&gt;MariaDB&lt;/font&gt;" style="shape=cylinder2;whiteSpace=wrap;html=1;boundedLbl=1;backgroundOutline=1;size=15;" vertex="1" parent="68">
                    <mxGeometry x="1308.86" y="320" width="209.29" height="360" as="geometry"/>
                </mxCell>
                <mxCell id="75" value="&lt;font style=&quot;font-size: 18px&quot;&gt;Linux&lt;/font&gt;" style="shape=trapezoid;perimeter=trapezoidPerimeter;whiteSpace=wrap;html=1;fixedSize=1;shadow=0;glass=0;gradientColor=#b3b3b3;fillColor=#f5f5f5;strokeColor=#666666;rounded=1;" parent="68" vertex="1">
                    <mxGeometry x="760" y="720" width="758.14" height="86.28" as="geometry"/>
                </mxCell>
                <mxCell id="117" value="&lt;font style=&quot;font-size: 18px&quot;&gt;PHP / MVC&lt;/font&gt;" style="ellipse;whiteSpace=wrap;html=1;aspect=fixed;" vertex="1" parent="68">
                    <mxGeometry x="920" y="400" width="280" height="280" as="geometry"/>
                </mxCell>
                <mxCell id="128" value="" style="shape=note;whiteSpace=wrap;html=1;backgroundOutline=1;darkOpacity=0.05;shadow=0;glass=0;" vertex="1" parent="68">
                    <mxGeometry x="908.21" y="310" width="62.79" height="90" as="geometry"/>
                </mxCell>
                <mxCell id="129" value="&lt;font style=&quot;font-size: 14px&quot;&gt;.php&lt;/font&gt;" style="shape=note;whiteSpace=wrap;html=1;backgroundOutline=1;darkOpacity=0.05;shadow=0;glass=0;" vertex="1" parent="68">
                    <mxGeometry x="939" y="360" width="60" height="87.78" as="geometry"/>
                </mxCell>
                <mxCell id="134" value="" style="icon;html=1;image=img/clipart/Gear_128x128.png;shadow=0;glass=0;" vertex="1" parent="68">
                    <mxGeometry x="1373.5" y="410" width="80" height="80" as="geometry"/>
                </mxCell>
                <mxCell id="139" value="" style="shape=flexArrow;endArrow=none;startArrow=block;html=1;exitX=0.02;exitY=0.504;exitDx=0;exitDy=0;entryX=0.989;entryY=0.391;entryDx=0;entryDy=0;entryPerimeter=0;gradientDirection=east;exitPerimeter=0;startFill=0;endFill=0;rounded=0;labelBackgroundColor=#FFFFFF;gradientColor=#7ea6e0;fillColor=#dae8fc;strokeColor=#6c8ebf;" edge="1" parent="68">
                    <mxGeometry width="50" height="50" relative="1" as="geometry">
                        <mxPoint x="1313.0428571428574" y="467.74112000000014" as="sourcePoint"/>
                        <mxPoint x="440" y="401.69000000000005" as="targetPoint"/>
                        <Array as="points">
                            <mxPoint x="1100" y="468"/>
                            <mxPoint x="890" y="402"/>
                        </Array>
                    </mxGeometry>
                </mxCell>
                <mxCell id="142" value="" style="icon;html=1;image=img/clipart/Gear_128x128.png;shadow=0;glass=0;" vertex="1" parent="68">
                    <mxGeometry x="990" y="410" width="80" height="80" as="geometry"/>
                </mxCell>
                <mxCell id="144" value="" style="icon;html=1;image=img/clipart/Gear_128x128.png;shadow=0;glass=0;" vertex="1" parent="68">
                    <mxGeometry x="820" y="410" width="80" height="80" as="geometry"/>
                </mxCell>
                <mxCell id="153" value="" style="pointerEvents=1;shadow=0;dashed=0;html=1;strokeColor=#b85450;labelPosition=center;verticalLabelPosition=bottom;verticalAlign=top;outlineConnect=0;align=center;shape=mxgraph.office.communications.dynamic_distribution_group;glass=0;fillColor=#f8cecc;gradientColor=#ea6b66;" vertex="1" parent="68">
                    <mxGeometry x="840" y="180" width="80" height="80" as="geometry"/>
                </mxCell>
                <mxCell id="85" value="L3" parent="0"/>
                <mxCell id="93" value="" style="shape=flexArrow;endArrow=classic;html=1;exitX=0.007;exitY=0.837;exitDx=0;exitDy=0;exitPerimeter=0;gradientDirection=east;entryX=0.989;entryY=0.703;entryDx=0;entryDy=0;entryPerimeter=0;gradientColor=#7ea6e0;fillColor=#dae8fc;strokeColor=#6c8ebf;" parent="85" edge="1">
                    <mxGeometry width="50" height="50" relative="1" as="geometry">
                        <mxPoint x="1310.3221428571433" y="603.53186" as="sourcePoint"/>
                        <mxPoint x="436.9200000000001" y="602.4000000000001" as="targetPoint"/>
                    </mxGeometry>
                </mxCell>
                <mxCell id="86" value="" style="shape=flexArrow;endArrow=classic;startArrow=classic;html=1;exitX=0;exitY=0.5;exitDx=0;exitDy=0;entryX=0.989;entryY=0.391;entryDx=0;entryDy=0;entryPerimeter=0;gradientDirection=east;gradientColor=#7ea6e0;fillColor=#dae8fc;strokeColor=#6c8ebf;" parent="85" edge="1">
                    <mxGeometry width="50" height="50" relative="1" as="geometry">
                        <mxPoint x="890.2857142857142" y="360.0011111111111" as="sourcePoint"/>
                        <mxPoint x="436.9200000000001" y="361.68999999999994" as="targetPoint"/>
                    </mxGeometry>
                </mxCell>
                <mxCell id="126" value="" style="icon;html=1;image=img/clipart/Gear_128x128.png;shadow=0;glass=0;" vertex="1" parent="85">
                    <mxGeometry x="1160" y="410" width="80" height="220" as="geometry"/>
                </mxCell>
                <mxCell id="127" value="" style="icon;html=1;image=img/clipart/Gear_128x128.png;shadow=0;glass=0;" vertex="1" parent="85">
                    <mxGeometry x="990" y="580" width="80" height="80" as="geometry"/>
                </mxCell>
            </root>
        </mxGraphModel>
    </diagram>
</mxfile>